<?xml version="1.0" encoding="UTF-8"?>
<!DOCTYPE svg PUBLIC "-//W3C//DTD SVG 1.1//EN" "http://www.w3.org/Graphics/SVG/1.1/DTD/svg11.dtd">
<svg width="16" height="17" viewBox="0 0 16 17" fill="none" xmlns="http://www.w3.org/2000/svg">
  <path d="M12.5 11.4844V5.01562C12.5 4.66406 12.377 4.36523 12.1309 4.11914C11.8848 3.87305 11.5859 3.75 11.2344 3.75H4.76562C4.41406 3.75 4.11523 3.87305 3.86914 4.11914C3.62305 4.36523 3.5 4.66406 3.5 5.01562V11.4844C3.5 11.8359 3.62305 12.1348 3.86914 12.3809C4.11523 12.627 4.41406 12.75 4.76562 12.75H11.2344C11.5859 12.75 11.8848 12.627 12.1309 12.3809C12.377 12.1348 12.5 11.8359 12.5 11.4844ZM11.2344 11.4844H4.76562V5.01562H11.2344V11.4844ZM0.300781 4.76953C0.429688 4.88672 0.582031 4.94531 0.757812 4.94531C0.933594 4.94531 1.08008 4.88672 1.19727 4.76953C1.32617 4.64062 1.39062 4.48828 1.39062 4.3125V1.64062H4.0625C4.23828 1.64062 4.38477 1.58203 4.50195 1.46484C4.63086 1.33594 4.69531 1.18359 4.69531 1.00781C4.69531 0.832031 4.63086 0.685547 4.50195 0.568359C4.38477 0.439453 4.23828 0.375 4.0625 0.375H1.39062C1.03906 0.375 0.740234 0.498047 0.494141 0.744141C0.248047 0.990234 0.125 1.28906 0.125 1.64062V4.3125C0.125 4.48828 0.183594 4.64062 0.300781 4.76953ZM4.0625 14.8594H1.39062V12.1875C1.39062 12.0117 1.32617 11.8652 1.19727 11.748C1.08008 11.6191 0.933594 11.5547 0.757812 11.5547C0.582031 11.5547 0.429688 11.6191 0.300781 11.748C0.183594 11.8652 0.125 12.0117 0.125 12.1875V14.8594C0.125 15.2109 0.248047 15.5098 0.494141 15.7559C0.740234 16.002 1.03906 16.125 1.39062 16.125H4.0625C4.23828 16.125 4.38477 16.0605 4.50195 15.9316C4.63086 15.8145 4.69531 15.668 4.69531 15.4922C4.69531 15.3164 4.63086 15.1641 4.50195 15.0352C4.38477 14.918 4.23828 14.8594 4.0625 14.8594ZM14.6094 0.375H11.9375C11.7617 0.375 11.6094 0.439453 11.4805 0.568359C11.3633 0.685547 11.3047 0.832031 11.3047 1.00781C11.3047 1.18359 11.3633 1.33594 11.4805 1.46484C11.6094 1.58203 11.7617 1.64062 11.9375 1.64062H14.6094V4.3125C14.6094 4.48828 14.668 4.64062 14.7852 4.76953C14.9141 4.88672 15.0664 4.94531 15.2422 4.94531C15.418 4.94531 15.5645 4.88672 15.6816 4.76953C15.8105 4.64062 15.875 4.48828 15.875 4.3125V1.64062C15.875 1.28906 15.752 0.990234 15.5059 0.744141C15.2598 0.498047 14.9609 0.375 14.6094 0.375ZM15.6816 11.748C15.5645 11.6191 15.418 11.5547 15.2422 11.5547C15.0664 11.5547 14.9141 11.6191 14.7852 11.748C14.668 11.8652 14.6094 12.0117 14.6094 12.1875V14.8594H11.9375C11.7617 14.8594 11.6094 14.918 11.4805 15.0352C11.3633 15.1641 11.3047 15.3164 11.3047 15.4922C11.3047 15.668 11.3633 15.8145 11.4805 15.9316C11.6094 16.0605 11.7617 16.125 11.9375 16.125H14.6094C14.9609 16.125 15.2598 16.002 15.5059 15.7559C15.752 15.5098 15.875 15.2109 15.875 14.8594V12.1875C15.875 12.0117 15.8105 11.8652 15.6816 11.748Z" fill="white"/>
</svg>
