<?xml version="1.0" encoding="UTF-8"?>
<!DOCTYPE svg PUBLIC "-//W3C//DTD SVG 1.1//EN" "http://www.w3.org/Graphics/SVG/1.1/DTD/svg11.dtd">
<svg width="22" height="22" viewBox="0 0 22 22" fill="none" xmlns="http://www.w3.org/2000/svg">
<path fill-rule="evenodd" clip-rule="evenodd" d="M13.0624 2.0625C13.0624 3.20159 12.139 4.125 10.9999 4.125C9.86083 4.125 8.93741 3.20159 8.93741 2.0625C8.93741 0.923413 9.86083 0 10.9999 0C12.139 0 13.0624 0.923413 13.0624 2.0625ZM21.725 15.6329C21.725 13.7383 19.5003 12.3131 16.0964 11.569L15.9633 11.551C15.5667 11.5298 15.2018 11.7982 15.1142 12.1988C15.0169 12.644 15.2989 13.0837 15.744 13.181C18.4547 13.7735 20.075 14.8115 20.075 15.6329C20.075 16.5916 17.9416 17.7746 14.6202 18.2945C14.17 18.365 13.8622 18.787 13.9327 19.2372C14.0031 19.6873 14.4252 19.9951 14.8753 19.9247C18.941 19.2883 21.725 17.7445 21.725 15.6329ZM6.74803 12.1988C6.65073 11.7537 6.211 11.4717 5.76588 11.569C2.36201 12.3132 0.137451 13.7383 0.137451 15.6329C0.137451 17.8508 3.23367 19.4552 7.61525 20.0142V21.0809C7.61525 21.4771 8.05422 21.7159 8.3869 21.5006L11.2257 19.6635C11.5277 19.4681 11.5307 19.0273 11.2315 18.8277L8.39268 16.9344C8.06041 16.7128 7.61525 16.951 7.61525 17.3504V18.3493C4.12494 17.8646 1.78745 16.6525 1.78745 15.6329C1.78745 14.8116 3.4077 13.7735 6.11826 13.181C6.56338 13.0837 6.84534 12.6439 6.74803 12.1988ZM13.1356 5.34723C13.895 5.34723 14.5106 5.96284 14.5106 6.72223C14.5106 6.79487 14.5048 6.86739 14.4934 6.93912L13.4953 13.1873C13.3887 13.8545 12.8132 14.3454 12.1375 14.3454H11.8646V16.403C11.8646 16.8785 11.4792 17.2639 11.0037 17.2639C10.5283 17.2639 10.1429 16.8785 10.1429 16.403V14.3454H9.74752C9.07983 14.3454 8.50864 13.8657 8.39322 13.2081L7.29667 6.95991C7.16541 6.21195 7.66534 5.4992 8.4133 5.36793C8.49178 5.35416 8.5713 5.34723 8.65098 5.34723H13.1356ZM8.97843 6.99721L9.97845 12.6954H11.903L12.8132 6.99721H8.97843Z" fill="white"/>
</svg>
