<svg width="13" height="12" viewBox="0 0 13 12" fill="none" xmlns="http://www.w3.org/2000/svg">
<g clip-path="url(#clip0)">
<path d="M9.1665 4.75C9.86775 4.74988 10.5565 4.9357 11.1625 5.2885C11.1797 5.29852 11.1989 5.30429 11.2188 5.30534C11.2386 5.30638 11.2584 5.30266 11.2765 5.2945C11.2947 5.28618 11.3106 5.27369 11.323 5.25805C11.3354 5.24241 11.344 5.22407 11.348 5.2045C11.3933 4.97239 11.4162 4.73648 11.4165 4.5C11.4165 2.019 8.949 0 5.9165 0C2.884 0 0.416504 2.019 0.416504 4.5C0.425867 5.05282 0.548605 5.59784 0.777119 6.10131C1.00563 6.60478 1.33506 7.05599 1.745 7.427L0.931504 9.6645C0.914983 9.71011 0.912088 9.75954 0.923171 9.80677C0.934255 9.85399 0.958839 9.89697 0.993926 9.93047C1.02901 9.96397 1.07309 9.98653 1.12078 9.99542C1.16847 10.0043 1.21771 9.99912 1.2625 9.9805L4.1785 8.766C4.45779 8.84129 4.74174 8.89808 5.0285 8.936C5.04646 8.9383 5.0647 8.93668 5.08197 8.93124C5.09923 8.9258 5.11511 8.91668 5.1285 8.9045C5.14218 8.89183 5.1529 8.8763 5.1599 8.85901C5.1669 8.84173 5.17001 8.82312 5.169 8.8045C5.169 8.786 5.169 8.767 5.169 8.748C5.17072 7.68828 5.59242 6.67244 6.34171 5.92306C7.091 5.17368 8.10678 4.75185 9.1665 4.75Z" fill="#2E4F96"/>
<path d="M9.16651 5.5C8.52372 5.5 7.89536 5.69061 7.3609 6.04772C6.82644 6.40484 6.40988 6.91242 6.1639 7.50628C5.91791 8.10014 5.85355 8.75361 5.97895 9.38404C6.10436 10.0145 6.41389 10.5936 6.86841 11.0481C7.32293 11.5026 7.90202 11.8122 8.53246 11.9376C9.1629 12.063 9.81637 11.9986 10.4102 11.7526C11.0041 11.5066 11.5117 11.0901 11.8688 10.5556C12.2259 10.0211 12.4165 9.39279 12.4165 8.75C12.4154 7.88837 12.0727 7.06234 11.4634 6.45307C10.8542 5.84381 10.0281 5.50106 9.16651 5.5V5.5ZM9.54151 10C9.54151 10.0995 9.502 10.1948 9.43167 10.2652C9.36134 10.3355 9.26596 10.375 9.16651 10.375C9.06705 10.375 8.97167 10.3355 8.90134 10.2652C8.83101 10.1948 8.79151 10.0995 8.79151 10V9.25C8.79151 9.21685 8.77834 9.18505 8.75489 9.16161C8.73145 9.13817 8.69966 9.125 8.66651 9.125H7.91651C7.81705 9.125 7.72167 9.08549 7.65134 9.01517C7.58101 8.94484 7.54151 8.84946 7.54151 8.75C7.54151 8.65054 7.58101 8.55516 7.65134 8.48483C7.72167 8.41451 7.81705 8.375 7.91651 8.375H8.66651C8.69966 8.375 8.73145 8.36183 8.75489 8.33839C8.77834 8.31495 8.79151 8.28315 8.79151 8.25V7.5C8.79151 7.40054 8.83101 7.30516 8.90134 7.23484C8.97167 7.16451 9.06705 7.125 9.16651 7.125C9.26596 7.125 9.36134 7.16451 9.43167 7.23484C9.502 7.30516 9.54151 7.40054 9.54151 7.5V8.25C9.54151 8.28315 9.55468 8.31495 9.57812 8.33839C9.60156 8.36183 9.63335 8.375 9.66651 8.375H10.4165C10.516 8.375 10.6113 8.41451 10.6817 8.48483C10.752 8.55516 10.7915 8.65054 10.7915 8.75C10.7915 8.84946 10.752 8.94484 10.6817 9.01517C10.6113 9.08549 10.516 9.125 10.4165 9.125H9.66651C9.63335 9.125 9.60156 9.13817 9.57812 9.16161C9.55468 9.18505 9.54151 9.21685 9.54151 9.25V10Z" fill="#2E4F96"/>
</g>
<defs>
<clipPath id="clip0">
<rect width="12" height="12" fill="white" transform="translate(0.416504)"/>
</clipPath>
</defs>
</svg>
