<svg width="13" height="12" viewBox="0 0 13 12" fill="none" xmlns="http://www.w3.org/2000/svg">
<g clip-path="url(#clip0)">
<path fill-rule="evenodd" clip-rule="evenodd" d="M2.88093 5.01614C2.50717 4.6423 2.29695 4.13548 2.29639 3.60685C2.29695 3.07851 2.50694 2.57195 2.88033 2.19816C3.25371 1.82437 3.76005 1.61384 4.28839 1.6127H9.4171C9.44552 1.6127 9.47277 1.60141 9.49286 1.58132C9.51296 1.56123 9.52424 1.53398 9.52424 1.50556V0.481703C9.52426 0.396953 9.54941 0.314111 9.5965 0.243649C9.64359 0.173188 9.71052 0.118271 9.78882 0.0858407C9.86712 0.0534107 9.95328 0.0449238 10.0364 0.0614527C10.1195 0.0779817 10.1959 0.118784 10.2558 0.178703L11.9225 1.84542C12.0029 1.92579 12.048 2.03478 12.048 2.14842C12.048 2.26206 12.0029 2.37105 11.9225 2.45142L10.2558 4.11727C10.1755 4.19765 10.0665 4.24282 9.95282 4.24285C9.89645 4.24287 9.84065 4.23165 9.78867 4.20985C9.71045 4.17741 9.64358 4.12253 9.59652 4.05213C9.54946 3.98172 9.52431 3.89896 9.52424 3.81427V2.79127C9.52424 2.76286 9.51296 2.73561 9.49286 2.71551C9.47277 2.69542 9.44552 2.68413 9.4171 2.68413H4.28839C4.04367 2.68413 3.80897 2.78135 3.63593 2.95439C3.46289 3.12743 3.36567 3.36213 3.36567 3.60685C3.36567 3.85157 3.46289 4.08626 3.63593 4.2593C3.80897 4.43235 4.04367 4.52956 4.28839 4.52956H10.1611C10.4288 4.51994 10.6958 4.56437 10.9459 4.66019C11.1961 4.75601 11.4244 4.90125 11.6172 5.08726C11.81 5.27326 11.9634 5.4962 12.0681 5.74278C12.1729 5.98936 12.2268 6.25452 12.2268 6.52242C12.2268 6.79032 12.1729 7.05547 12.0681 7.30205C11.9634 7.54863 11.81 7.77158 11.6172 7.95758C11.4244 8.14358 11.1961 8.28883 10.9459 8.38465C10.6958 8.48047 10.4288 8.52489 10.1611 8.51528H7.54838C7.49447 8.13443 7.37799 7.77371 7.20967 7.44385H10.1615C10.2866 7.45046 10.4118 7.43153 10.5293 7.38821C10.6469 7.34488 10.7543 7.27808 10.8452 7.19187C10.9361 7.10566 11.0085 7.00184 11.058 6.88675C11.1074 6.77165 11.1329 6.64769 11.1329 6.52242C11.1329 6.39714 11.1074 6.27318 11.058 6.15809C11.0085 6.04299 10.9361 5.93918 10.8452 5.85297C10.7543 5.76675 10.6469 5.69995 10.5293 5.65663C10.4118 5.61331 10.2866 5.59438 10.1615 5.60099H4.60546C4.45767 5.58154 4.30691 5.57151 4.15381 5.57151C4.09468 5.57151 4.03589 5.573 3.97749 5.57596C3.56474 5.50997 3.1802 5.31547 2.88093 5.01614Z" fill="#2E4F96"/>
<path d="M4.15395 6.42871C3.64537 6.42871 3.14821 6.57952 2.72534 6.86207C2.30247 7.14463 1.97288 7.54623 1.77826 8.0161C1.58363 8.48596 1.53271 9.00299 1.63193 9.5018C1.73115 10.0006 1.97605 10.4588 2.33567 10.8184C2.69529 11.178 3.15348 11.4229 3.65229 11.5222C4.1511 11.6214 4.66812 11.5705 5.13799 11.3758C5.60786 11.1812 6.00946 10.8516 6.29201 10.4287C6.57456 10.0059 6.72538 9.50872 6.72538 9.00014C6.72454 8.31841 6.45335 7.66484 5.9713 7.18279C5.48924 6.70073 4.83568 6.42955 4.15395 6.42871V6.42871ZM5.09984 9.32177L4.30863 10.3108C4.2901 10.334 4.26657 10.3528 4.2398 10.3657C4.21302 10.3786 4.18367 10.3853 4.15395 10.3853C4.12422 10.3853 4.09488 10.3786 4.0681 10.3657C4.04132 10.3528 4.01779 10.334 3.99927 10.3108L3.20806 9.32177C3.18469 9.29266 3.17004 9.25754 3.16579 9.22046C3.16154 9.18337 3.16787 9.14585 3.18405 9.11221C3.20023 9.07857 3.22559 9.0502 3.25721 9.03037C3.28883 9.01054 3.32542 9.00006 3.36274 9.00014H3.56054C3.613 9.00014 3.66331 8.9793 3.70041 8.9422C3.7375 8.90511 3.75834 8.8548 3.75834 8.80234V7.81333C3.75834 7.70841 3.80002 7.60778 3.87421 7.53359C3.9484 7.4594 4.04903 7.41772 4.15395 7.41772C4.25887 7.41772 4.35949 7.4594 4.43368 7.53359C4.50787 7.60778 4.54955 7.70841 4.54955 7.81333V8.80234C4.54955 8.8548 4.57039 8.90511 4.60749 8.9422C4.64458 8.9793 4.69489 9.00014 4.74735 9.00014H4.94516C4.98248 9.00006 5.01907 9.01054 5.05069 9.03037C5.08231 9.0502 5.10767 9.07857 5.12385 9.11221C5.14002 9.14585 5.14635 9.18337 5.1421 9.22046C5.13786 9.25754 5.1232 9.29266 5.09984 9.32177Z" fill="#2E4F96"/>
</g>
<defs>
<clipPath id="clip0">
<rect width="12" height="12" fill="white" transform="translate(0.583008)"/>
</clipPath>
</defs>
</svg>
