<svg width="13" height="12" viewBox="0 0 13 12" fill="none" xmlns="http://www.w3.org/2000/svg">
<g clip-path="url(#clip0)">
<path d="M1.03831 5.91302C0.975635 6.11851 0.961999 6.33583 0.998496 6.54754C1.03499 6.75924 1.12061 6.95945 1.24847 7.13209C1.37633 7.30473 1.54288 7.44499 1.73475 7.54162C1.92663 7.63826 2.13848 7.68857 2.35331 7.68852H5.14331C5.24885 7.6885 5.35268 7.71522 5.44509 7.7662C5.5375 7.81717 5.61549 7.89074 5.67176 7.98002C5.72804 8.06931 5.76077 8.1714 5.7669 8.27676C5.77303 8.38212 5.75236 8.48732 5.70681 8.58252L4.99281 10.079C4.92733 10.2734 4.91225 10.4813 4.94898 10.6831C4.98571 10.8849 5.07304 11.0741 5.20281 11.233C5.32273 11.3807 5.47523 11.4987 5.64836 11.5776C5.8215 11.6565 6.01055 11.6942 6.20071 11.6878C6.39087 11.6815 6.57697 11.6311 6.74441 11.5407C6.91185 11.4504 7.05609 11.3225 7.16581 11.167L9.61081 7.70302C9.66861 7.62138 9.74511 7.55477 9.83393 7.50875C9.92274 7.46274 10.0213 7.43866 10.1213 7.43852C10.1828 7.43852 10.2419 7.41408 10.2854 7.37057C10.3289 7.32706 10.3533 7.26805 10.3533 7.20652V1.55002C10.3533 1.50306 10.3401 1.45705 10.3152 1.41726C10.2902 1.37746 10.2546 1.3455 10.2123 1.32502C8.36181 0.430023 7.74781 0.311523 6.24131 0.311523C6.06781 0.311523 5.08131 0.321523 4.72081 0.321523C3.38081 0.321523 2.48931 1.10002 1.99281 2.71102L1.04281 5.89552L1.03831 5.91302Z" fill="#C03536"/>
<path d="M11.1035 7.43848H11.1165C11.146 7.61281 11.2361 7.77114 11.3709 7.88549C11.5058 7.99985 11.6767 8.06289 11.8535 8.06348H12.6035C12.6698 8.06348 12.7334 8.03714 12.7803 7.99025C12.8272 7.94337 12.8535 7.87978 12.8535 7.81348V0.813477C12.8535 0.747172 12.8272 0.683584 12.7803 0.6367C12.7334 0.589816 12.6698 0.563477 12.6035 0.563477H11.8535C11.6546 0.563477 11.4638 0.642494 11.3232 0.783147C11.1825 0.923799 11.1035 1.11456 11.1035 1.31348V7.43848Z" fill="#C03536"/>
</g>
<defs>
<clipPath id="clip0">
<rect width="12" height="12" fill="white" transform="translate(0.916504)"/>
</clipPath>
</defs>
</svg>
