<svg width="13" height="12" viewBox="0 0 13 12" fill="none" xmlns="http://www.w3.org/2000/svg">
<g clip-path="url(#clip0)">
<path d="M11.4638 4.92865C11.3169 4.70106 11.1959 4.4577 11.1033 4.20315C11.1028 1.57215 8.67178 0.000145313 6.32128 0.000145313C5.66064 -0.00491027 5.00564 0.121998 4.3947 0.373428C3.78375 0.624858 3.22917 0.995747 2.76346 1.46434C2.29775 1.93294 1.93029 2.48981 1.68264 3.1023C1.43499 3.71478 1.31214 4.37055 1.32128 5.03115C1.32128 6.83115 1.99428 8.16915 3.32128 9.01015V11.7501C3.32128 11.8164 3.34761 11.88 3.3945 11.9269C3.44138 11.9738 3.50497 12.0001 3.57128 12.0001H8.57128C8.63758 12.0001 8.70117 11.9738 8.74805 11.9269C8.79494 11.88 8.82128 11.8164 8.82128 11.7501V10.2616C9.69078 10.2526 10.2213 10.1571 10.6078 9.77114C11.0258 9.35314 11.0853 8.10115 11.0888 7.50715C11.2388 7.50715 11.4308 7.51015 11.5968 7.50315C11.6915 7.49959 11.7842 7.47435 11.8677 7.42936C11.9512 7.38438 12.0232 7.32084 12.0783 7.24365C12.149 7.13321 12.1823 7.00296 12.1733 6.87215V6.80315C12.2153 6.24515 11.8163 5.54565 11.4638 4.92865ZM6.49978 8.75014C6.35144 8.75014 6.20643 8.70616 6.0831 8.62375C5.95976 8.54134 5.86363 8.4242 5.80687 8.28716C5.7501 8.15011 5.73525 7.99931 5.76419 7.85383C5.79313 7.70834 5.86456 7.5747 5.96945 7.46982C6.07433 7.36493 6.20797 7.2935 6.35346 7.26456C6.49894 7.23562 6.64974 7.25047 6.78679 7.30724C6.92383 7.364 7.04097 7.46013 7.12338 7.58347C7.20579 7.7068 7.24978 7.85181 7.24978 8.00014C7.24978 8.19906 7.17076 8.38982 7.03011 8.53047C6.88945 8.67113 6.69869 8.75014 6.49978 8.75014ZM7.29978 5.71015C7.21057 5.74908 7.13467 5.8132 7.08138 5.89464C7.02809 5.97609 6.99973 6.07132 6.99978 6.16865C6.99978 6.30125 6.9471 6.42843 6.85333 6.5222C6.75956 6.61597 6.63238 6.66865 6.49978 6.66865C6.36717 6.66865 6.23999 6.61597 6.14622 6.5222C6.05245 6.42843 5.99978 6.30125 5.99978 6.16865C5.99973 5.87674 6.08486 5.59117 6.24472 5.34693C6.40459 5.10269 6.63224 4.91041 6.89978 4.79365C7.06503 4.72152 7.20772 4.60606 7.31272 4.45947C7.41772 4.31289 7.48114 4.14064 7.49625 3.96096C7.51137 3.78129 7.47763 3.60087 7.39859 3.4388C7.31955 3.27673 7.19817 3.13905 7.04728 3.04033C6.8964 2.94161 6.72163 2.88552 6.54147 2.878C6.36132 2.87048 6.18248 2.91181 6.02389 2.99762C5.86531 3.08343 5.73287 3.21052 5.64061 3.36543C5.54834 3.52035 5.49968 3.69733 5.49978 3.87765C5.49978 4.01025 5.4471 4.13743 5.35333 4.2312C5.25956 4.32497 5.13238 4.37765 4.99978 4.37765C4.86717 4.37765 4.73999 4.32497 4.64622 4.2312C4.55245 4.13743 4.49978 4.01025 4.49978 3.87765C4.49977 3.51706 4.59725 3.16319 4.78189 2.85347C4.96653 2.54375 5.23148 2.28971 5.54867 2.11824C5.86587 1.94676 6.22353 1.86423 6.58379 1.87938C6.94406 1.89453 7.29352 2.00679 7.59521 2.20429C7.89689 2.40178 8.13957 2.67717 8.29757 3.00129C8.45556 3.32542 8.52299 3.68622 8.49271 4.04553C8.46244 4.40484 8.33559 4.74928 8.12559 5.0424C7.91559 5.33552 7.63025 5.56641 7.29978 5.71065V5.71015Z" fill="#FE8632"/>
</g>
<defs>
<clipPath id="clip0">
<rect width="12" height="12" fill="white" transform="translate(0.75)"/>
</clipPath>
</defs>
</svg>
