<svg width="16" height="16" viewBox="0 0 16 16" fill="none" xmlns="http://www.w3.org/2000/svg">
<circle cx="8" cy="8" r="8" fill="#FE8632"/>
<path d="M6.00009 6.00026C6.00009 6.13287 6.05277 6.26004 6.14654 6.35381C6.24031 6.44758 6.36749 6.50026 6.50009 6.50026L7.12509 6.50026C7.15825 6.50026 7.19004 6.51343 7.21348 6.53687C7.23693 6.56031 7.25009 6.59211 7.25009 6.62526L7.25009 11.6793C7.25009 11.8782 7.32911 12.0689 7.46976 12.2096C7.61042 12.3502 7.80118 12.4293 8.00009 12.4293C8.19901 12.4293 8.38977 12.3502 8.53042 12.2096C8.67108 12.0689 8.75009 11.8782 8.75009 11.6793L8.75009 6.62526C8.75009 6.59211 8.76326 6.56031 8.78671 6.53687C8.81015 6.51343 8.84194 6.50026 8.87509 6.50026L9.50009 6.50026C9.58859 6.50024 9.6755 6.47674 9.75194 6.43214C9.82839 6.38755 9.89162 6.32347 9.9352 6.24644C9.97877 6.16941 10.0011 6.0822 9.99996 5.99371C9.9988 5.90521 9.97417 5.81862 9.92859 5.74276L8.4286 3.24276C8.38417 3.16872 8.32133 3.10744 8.2462 3.0649C8.17106 3.02236 8.08619 3 7.99985 3C7.9135 3 7.82863 3.02236 7.75349 3.0649C7.67836 3.10744 7.61552 3.16872 7.57109 3.24276L6.0711 5.74276C6.02452 5.82056 5.99997 5.90957 6.00009 6.00026V6.00026Z" fill="white"/>
</svg>
