<svg width="13" height="12" viewBox="0 0 13 12" fill="none" xmlns="http://www.w3.org/2000/svg">
<path d="M9.83301 4.75008H9.45801V3.37508C9.45779 2.56489 9.16617 1.78181 8.63641 1.16882C8.10664 0.555839 7.37407 0.153844 6.57247 0.0362446C5.77086 -0.0813551 4.9537 0.093286 4.27019 0.528279C3.58668 0.963272 3.08243 1.62959 2.84951 2.40558C2.82597 2.48421 2.81815 2.5667 2.82649 2.64836C2.83483 2.73001 2.85917 2.80922 2.89813 2.88146C2.93708 2.9537 2.98989 3.01757 3.05352 3.06941C3.11716 3.12124 3.19038 3.16004 3.26901 3.18358C3.34764 3.20712 3.43013 3.21494 3.51178 3.2066C3.59344 3.19826 3.67265 3.17391 3.74489 3.13496C3.81713 3.096 3.881 3.0432 3.93283 2.97957C3.98467 2.91593 4.02347 2.84271 4.04701 2.76408C4.19386 2.27563 4.51145 1.85627 4.94183 1.58254C5.37221 1.30882 5.88667 1.19898 6.3913 1.27308C6.89594 1.34719 7.35711 1.60028 7.69063 1.98618C8.02415 2.37207 8.20778 2.86503 8.20801 3.37508V4.50008C8.20801 4.56638 8.18167 4.62997 8.13478 4.67686C8.0879 4.72374 8.02431 4.75008 7.95801 4.75008H2.33301C2.06779 4.75008 1.81344 4.85544 1.6259 5.04297C1.43836 5.23051 1.33301 5.48486 1.33301 5.75008V11.0001C1.33301 11.2653 1.43836 11.5196 1.6259 11.7072C1.81344 11.8947 2.06779 12.0001 2.33301 12.0001H9.83301C10.0982 12.0001 10.3526 11.8947 10.5401 11.7072C10.7277 11.5196 10.833 11.2653 10.833 11.0001V5.75008C10.833 5.48486 10.7277 5.23051 10.5401 5.04297C10.3526 4.85544 10.0982 4.75008 9.83301 4.75008ZM5.08301 7.75008C5.08221 7.57435 5.12774 7.40152 5.215 7.24899C5.30226 7.09646 5.42818 6.96961 5.58006 6.88124C5.73195 6.79286 5.90444 6.74606 6.08017 6.74556C6.2559 6.74507 6.42865 6.79088 6.58103 6.8784C6.73342 6.96592 6.86005 7.09205 6.94817 7.24409C7.03629 7.39612 7.0828 7.56869 7.083 7.74442C7.0832 7.92015 7.03709 8.09282 6.94931 8.24506C6.86153 8.3973 6.73519 8.52371 6.58301 8.61158V9.75008C6.58301 9.88269 6.53033 10.0099 6.43656 10.1036C6.34279 10.1974 6.21562 10.2501 6.08301 10.2501C5.9504 10.2501 5.82322 10.1974 5.72945 10.1036C5.63569 10.0099 5.58301 9.88269 5.58301 9.75008V8.61158C5.43145 8.52443 5.30547 8.39895 5.21771 8.24774C5.12995 8.09654 5.0835 7.92491 5.08301 7.75008V7.75008Z" fill="#2E4F96"/>
</svg>
