<svg width="16" height="16" viewBox="0 0 16 16" fill="none" xmlns="http://www.w3.org/2000/svg">
<g>
<circle cx="8" cy="8" r="8" fill="#89113B"/>
<path d="M5.25463 7.60219C5.24239 7.58969 5.23319 7.57462 5.22772 7.55812C5.22225 7.54162 5.22066 7.52413 5.22307 7.50694C5.22556 7.48983 5.232 7.4735 5.24189 7.45921C5.25179 7.44491 5.26488 7.43302 5.28016 7.42445L5.65149 7.21344C5.73073 7.16856 5.80019 7.10878 5.85591 7.03754C5.91162 6.9663 5.9525 6.88497 5.97621 6.79822C5.99991 6.71146 6.00598 6.62097 5.99407 6.53192C5.98216 6.44286 5.9525 6.35697 5.90678 6.27917C5.86106 6.20137 5.80019 6.13317 5.72763 6.07846C5.65507 6.02376 5.57225 5.98362 5.48389 5.96035C5.39553 5.93707 5.30337 5.93111 5.21266 5.94281C5.12196 5.9545 5.03449 5.98363 4.95525 6.02851L4.46092 6.30879C4.44467 6.31794 4.42641 6.32309 4.4077 6.32381C4.38899 6.32452 4.37038 6.32078 4.35346 6.3129C4.33654 6.30501 4.32181 6.29323 4.31054 6.27855C4.29926 6.26387 4.29178 6.24672 4.28872 6.22858L4.10305 5.14255C4.04968 4.82295 3.88215 4.53245 3.63048 4.32309C3.37881 4.11374 3.05945 3.9992 2.7296 4H-1.73006C-2.06005 3.99924 -2.37952 4.1139 -2.63121 4.32344C-2.8829 4.53298 -3.05034 4.82369 -3.10351 5.14346L-3.28918 6.22949C-3.29231 6.24765 -3.29986 6.26479 -3.31118 6.27946C-3.32251 6.29414 -3.33727 6.30591 -3.35422 6.31379C-3.37117 6.32166 -3.3898 6.3254 -3.40854 6.32469C-3.42728 6.32398 -3.44557 6.31884 -3.46185 6.30971L-3.95525 6.02942C-4.11528 5.93877 -4.30544 5.91425 -4.48389 5.96126C-4.66233 6.00827 -4.81445 6.12295 -4.90678 6.28008C-4.99911 6.43721 -5.02408 6.62392 -4.9762 6.79913C-4.92833 6.97434 -4.81152 7.1237 -4.65149 7.21435L-4.28016 7.42536C-4.26488 7.43393 -4.25179 7.44582 -4.24189 7.46012C-4.232 7.47441 -4.22556 7.49074 -4.22307 7.50785C-4.22066 7.52504 -4.22225 7.54254 -4.22772 7.55903C-4.23319 7.57553 -4.24239 7.5906 -4.25463 7.6031C-4.62758 7.98087 -4.83644 8.48614 -4.83716 9.01226V9.92374C-4.8364 10.1522 -4.76553 10.3751 -4.63379 10.5634C-4.50205 10.7517 -4.31557 10.8966 -4.09867 10.9792C-4.07695 10.9876 -4.0583 11.0023 -4.04514 11.0212C-4.03199 11.0401 -4.02492 11.0625 -4.02487 11.0854V11.9746C-4.02487 12.2465 -3.91484 12.5074 -3.71899 12.6997C-3.52313 12.892 -3.25749 13 -2.98051 13C-2.70353 13 -2.43789 12.892 -2.24204 12.6997C-2.04618 12.5074 -1.93615 12.2465 -1.93615 11.9746V11.177C-1.93615 11.1468 -1.92392 11.1178 -1.90216 11.0965C-1.8804 11.0751 -1.85088 11.0631 -1.82011 11.0631H2.8215C2.85228 11.0631 2.88179 11.0751 2.90356 11.0965C2.92532 11.1178 2.93754 11.1468 2.93754 11.177V11.9746C2.93754 12.2465 3.04757 12.5074 3.24343 12.6997C3.43929 12.892 3.70492 13 3.9819 13C4.25889 13 4.52452 12.892 4.72038 12.6997C4.91624 12.5074 5.02627 12.2465 5.02627 11.9746V11.0873C5.02632 11.0643 5.03338 11.0419 5.04654 11.023C5.0597 11.0041 5.07835 10.9895 5.10007 10.9811C5.31696 10.8984 5.50345 10.7535 5.63518 10.5652C5.76692 10.3769 5.83779 10.154 5.83855 9.92556V9.01408C5.83819 8.48682 5.62876 7.98043 5.25463 7.60219ZM-1.73006 4.9124H2.73145C2.84132 4.91245 2.94761 4.95076 3.03142 5.02053C3.11522 5.09029 3.1711 5.18698 3.18912 5.2934L3.41145 6.60275C3.41393 6.61888 3.4129 6.63535 3.40842 6.65106C3.40394 6.66677 3.39611 6.68137 3.38546 6.6939C3.37453 6.7065 3.36095 6.71662 3.34563 6.72355C3.33032 6.73047 3.31366 6.73404 3.2968 6.734H-2.29541C-2.31227 6.73403 -2.32894 6.73044 -2.34425 6.7235C-2.35956 6.71656 -2.37314 6.70642 -2.38406 6.6938C-2.39497 6.68117 -2.40295 6.66636 -2.40744 6.6504C-2.41193 6.63444 -2.41282 6.61771 -2.41006 6.60138L-2.18772 5.29203C-2.16941 5.18587 -2.1134 5.0895 -2.02963 5.02001C-1.94586 4.95052 -1.83973 4.9124 -1.73006 4.9124ZM3.9819 9.92556C3.8442 9.92556 3.70959 9.88547 3.59509 9.81035C3.4806 9.73524 3.39136 9.62847 3.33866 9.50356C3.28597 9.37864 3.27218 9.24119 3.29904 9.10858C3.32591 8.97598 3.39222 8.85417 3.48959 8.75856C3.58696 8.66296 3.71102 8.59785 3.84608 8.57147C3.98113 8.5451 4.12112 8.55863 4.24834 8.61037C4.37557 8.66212 4.4843 8.74974 4.56081 8.86216C4.63731 8.97458 4.67815 9.10674 4.67815 9.24195C4.67815 9.42326 4.60479 9.59714 4.47422 9.72534C4.34365 9.85354 4.16656 9.92556 3.9819 9.92556V9.92556ZM-3.67675 9.24195C-3.67675 9.10674 -3.63592 8.97458 -3.55941 8.86216C-3.48291 8.74974 -3.37417 8.66212 -3.24695 8.61037C-3.11973 8.55863 -2.97974 8.5451 -2.84468 8.57147C-2.70962 8.59785 -2.58557 8.66296 -2.48819 8.75856C-2.39082 8.85417 -2.32451 8.97598 -2.29765 9.10858C-2.27078 9.24119 -2.28457 9.37864 -2.33727 9.50356C-2.38996 9.62847 -2.4792 9.73524 -2.5937 9.81035C-2.7082 9.88547 -2.84281 9.92556 -2.98051 9.92556C-3.16517 9.92556 -3.34226 9.85354 -3.47283 9.72534C-3.6034 9.59714 -3.67675 9.42326 -3.67675 9.24195V9.24195Z" fill="white"/>
<path d="M18.9761 9.00533C18.6864 9.00611 18.4004 9.06801 18.1375 9.18678C17.8747 9.30555 17.6412 9.47838 17.4532 9.69343C17.4347 9.71442 17.4098 9.72914 17.3822 9.73548C17.3545 9.74182 17.3255 9.73946 17.2993 9.72873L16.3681 9.34991C16.3489 9.34211 16.3319 9.33013 16.3182 9.31487C16.3045 9.29961 16.2946 9.2815 16.2893 9.26192C16.284 9.24221 16.2834 9.22156 16.2877 9.20161C16.2921 9.18167 16.3011 9.16299 16.3141 9.14706C16.646 8.71639 17.0488 8.34249 17.5061 8.04062C18.3445 7.50299 19.2669 7.1019 20.2372 6.85304C20.4445 6.7996 20.6233 6.67127 20.7373 6.49405C20.8513 6.31682 20.892 6.10393 20.8513 5.89848C20.8105 5.69303 20.6913 5.51037 20.5178 5.38748C20.3442 5.26459 20.1293 5.21065 19.9165 5.23659C19.3578 5.30455 18.765 5.41783 18.1383 5.53691C17.9191 5.5787 17.6985 5.61998 17.4764 5.66072C17.4504 5.66548 17.4264 5.67757 17.4073 5.6955L17.403 5.69918L15.3915 7.26664C15.1519 7.45299 14.8547 7.55458 14.5483 7.55484H14.192C13.9583 7.55447 13.7287 7.49513 13.5254 7.3826C13.3221 7.27007 13.1521 7.10815 13.0318 6.91258L12.4888 6.02058C12.4792 6.00487 12.4731 5.98736 12.471 5.96919C12.4688 5.95103 12.4706 5.93262 12.4763 5.9152L12.6313 5.44101C12.6626 5.32976 12.7305 5.23161 12.8245 5.16165C12.9185 5.09169 13.0335 5.05379 13.1517 5.05376H13.9825C14.1257 5.05376 14.263 4.99825 14.3643 4.89944C14.4655 4.80063 14.5224 4.66662 14.5224 4.52688C14.5224 4.38715 14.4655 4.25314 14.3643 4.15433C14.263 4.05552 14.1257 4.00001 13.9825 4.00001H13.1517C12.8077 3.99889 12.4723 4.10507 12.1945 4.30306C11.9166 4.50105 11.7109 4.7805 11.6072 5.10065L11.1904 6.38043C11.1802 6.4116 11.1584 6.43793 11.1294 6.45429C11.1003 6.47065 11.0661 6.47588 11.0333 6.46895C8.99433 6.03691 8.1581 7.34514 8.12032 7.40731C8.04828 7.52565 8.02699 7.66694 8.06105 7.8005C8.09511 7.93407 8.18178 8.04913 8.30224 8.1207C8.38675 8.17214 8.48445 8.19918 8.58404 8.19868C8.67539 8.19861 8.76526 8.17626 8.8455 8.13366C8.92573 8.09105 8.99378 8.02955 9.04345 7.95474C9.09744 7.87465 9.53472 7.28297 10.6722 7.47159C10.6914 7.47458 10.7097 7.48158 10.7259 7.4921C10.7421 7.50262 10.7558 7.51642 10.7661 7.53257C10.7763 7.54872 10.7829 7.56683 10.7853 7.58568C10.7877 7.60452 10.786 7.62365 10.7801 7.64177L10.5329 8.39047C10.5234 8.41938 10.504 8.44422 10.4779 8.46082C10.4519 8.47741 10.4208 8.48476 10.3898 8.48161C10.3728 8.4795 10.3557 8.47844 10.3385 8.47845C9.78265 8.47329 9.24339 8.6634 8.8192 9.0141C8.39502 9.36479 8.1142 9.85267 8.02801 10.3887C7.94183 10.9247 8.05602 11.4731 8.34975 11.9337C8.64348 12.3944 9.09715 12.7365 9.62794 12.8978C10.1587 13.0591 10.7313 13.0287 11.241 12.8121C11.7507 12.5956 12.1637 12.2074 12.4044 11.7184C12.6452 11.2293 12.6978 10.6721 12.5525 10.1484C12.4072 9.62466 12.0738 9.1694 11.6131 8.86571C11.5888 8.84982 11.5703 8.82665 11.5606 8.79967C11.5509 8.77269 11.5504 8.74336 11.5591 8.71607L11.7691 8.07434C11.7761 8.05264 11.7888 8.03307 11.8058 8.01755C11.8229 8.00203 11.8437 7.99108 11.8664 7.98578C11.8891 7.98047 11.9128 7.98099 11.9352 7.98727C11.9576 7.99356 11.9779 8.00541 11.9943 8.02165C12.3374 8.39853 12.6318 8.81506 12.871 9.26192C13.2489 9.90102 13.5728 10.4532 14.1169 10.4532H14.3869C14.7433 10.4637 15.0935 10.36 15.384 10.1581C15.4027 10.1451 15.4245 10.1369 15.4474 10.1344C15.4703 10.132 15.4934 10.1352 15.5146 10.1439L16.8804 10.6992C16.9077 10.7102 16.9306 10.7297 16.9454 10.7547C16.9603 10.7796 16.9663 10.8087 16.9625 10.8373C16.9557 10.8846 16.9519 10.9323 16.9511 10.9801C16.9509 11.3709 17.0695 11.7529 17.2918 12.078C17.5141 12.403 17.8301 12.6564 18.2 12.8061C18.5698 12.9559 18.9769 12.9952 19.3697 12.9191C19.7624 12.843 20.1232 12.655 20.4065 12.3788C20.6897 12.1025 20.8827 11.7505 20.961 11.3673C21.0392 10.984 20.9993 10.5867 20.8462 10.2256C20.693 9.86452 20.4337 9.55585 20.1008 9.33864C19.7679 9.12143 19.3765 9.00543 18.9761 9.00533V9.00533ZM10.3385 11.9031C10.0552 11.9037 9.78059 11.8074 9.56245 11.6309C9.34432 11.4544 9.19644 11.2089 9.14453 10.937C9.09262 10.6652 9.13995 10.3841 9.2783 10.1428C9.41665 9.90145 9.63726 9.71505 9.90181 9.61598C9.92554 9.60707 9.95136 9.60489 9.9763 9.60968C10.0012 9.61447 10.0243 9.62604 10.0428 9.64305C10.0613 9.66006 10.0745 9.68182 10.0809 9.70584C10.0873 9.72985 10.0866 9.75514 10.0789 9.77878L9.82569 10.5575C9.78217 10.6907 9.79463 10.8353 9.86033 10.9595C9.92604 11.0837 10.0396 11.1773 10.1761 11.2198C10.3125 11.2623 10.4607 11.2501 10.5879 11.186C10.7152 11.1219 10.8111 11.011 10.8546 10.8778L11.11 10.096C11.1177 10.0723 11.1321 10.0513 11.1515 10.0353C11.1709 10.0194 11.1945 10.009 11.2197 10.0056C11.2448 10.0021 11.2705 10.0056 11.2937 10.0157C11.3169 10.0259 11.3366 10.0422 11.3508 10.0628C11.4833 10.2566 11.5538 10.4846 11.5532 10.7177C11.5528 11.032 11.4247 11.3332 11.197 11.5555C10.9693 11.7777 10.6606 11.9027 10.3385 11.9031V11.9031ZM18.9761 11.9031C18.8214 11.9031 18.669 11.8658 18.5325 11.7947C18.396 11.7236 18.2795 11.6208 18.1933 11.4953C18.1776 11.472 18.1699 11.4444 18.1714 11.4165C18.1728 11.3886 18.1833 11.3618 18.2013 11.3401C18.2194 11.3184 18.244 11.3029 18.2717 11.2957C18.2993 11.2886 18.3286 11.2902 18.3553 11.3004L18.7661 11.4674C18.8983 11.5212 19.0469 11.5216 19.1793 11.4684C19.3117 11.4153 19.4171 11.3129 19.4722 11.184C19.5274 11.055 19.5277 10.9099 19.4733 10.7807C19.4188 10.6514 19.3139 10.5486 19.1818 10.4948L18.7688 10.3273C18.7421 10.3164 18.7197 10.2974 18.7049 10.2731C18.69 10.2489 18.6836 10.2206 18.6865 10.1925C18.6894 10.1644 18.7015 10.1379 18.721 10.117C18.7405 10.0961 18.7663 10.0819 18.7947 10.0765C18.8544 10.0646 18.9152 10.0588 18.9761 10.0591C19.2267 10.0591 19.467 10.1562 19.6441 10.3291C19.8213 10.5021 19.9208 10.7366 19.9208 10.9811C19.9208 11.2257 19.8213 11.4602 19.6441 11.6331C19.467 11.806 19.2267 11.9031 18.9761 11.9031V11.9031Z" fill="white"/>
<path d="M13.0202 6.08301C13.007 6.10132 13 6.12223 13 6.14354C13 6.16484 13.007 6.18576 13.0202 6.20406L13.3462 6.65741C13.4218 6.76164 13.5288 6.84796 13.6568 6.90799C13.7847 6.96801 13.9293 6.99971 14.0764 7H14.45C14.6429 6.99997 14.8301 6.94593 14.9809 6.8467L15.9466 6.20827C15.9707 6.19247 15.9878 6.17064 15.9955 6.14607C16.0032 6.12151 16.001 6.09555 15.9892 6.07211C15.9775 6.04867 15.9568 6.02903 15.9303 6.01616C15.9038 6.00329 15.873 5.99788 15.8425 6.00075C15.4182 6.04205 14.9915 6.06359 14.5643 6.06525C13.9983 6.06525 13.5319 6.05029 13.1521 6.02786C13.1261 6.02623 13.1 6.0305 13.0768 6.04023C13.0535 6.04995 13.034 6.06475 13.0202 6.08301V6.08301Z" fill="white"/>
</g>
</svg>
