<svg width="13" height="12" viewBox="0 0 13 12" fill="none" xmlns="http://www.w3.org/2000/svg">
<g clip-path="url(#clip0)">
<path d="M6.25 0C5.06331 0 3.90328 0.351894 2.91658 1.01118C1.92989 1.67047 1.16085 2.60754 0.706726 3.7039C0.2526 4.80026 0.13378 6.00666 0.365291 7.17054C0.596802 8.33443 1.16825 9.40353 2.00736 10.2426C2.84648 11.0818 3.91558 11.6532 5.07946 11.8847C6.24335 12.1162 7.44975 11.9974 8.5461 11.5433C9.64246 11.0892 10.5795 10.3201 11.2388 9.33342C11.8981 8.34673 12.25 7.18669 12.25 6C12.2482 4.40927 11.6154 2.88422 10.4906 1.75941C9.36578 0.634589 7.84073 0.00185261 6.25 0V0ZM9.7135 4.1L6.291 8.7445C6.2506 8.79811 6.19992 8.84314 6.14192 8.87695C6.08392 8.91076 6.01977 8.93268 5.95321 8.94143C5.88665 8.95018 5.81902 8.94558 5.75425 8.92791C5.68949 8.91024 5.62889 8.87984 5.576 8.8385L3.132 6.8845C3.08072 6.84346 3.03803 6.79273 3.00635 6.73519C2.97468 6.67765 2.95465 6.61443 2.94741 6.54915C2.93278 6.41732 2.97112 6.28507 3.054 6.1815C3.13688 6.07793 3.25751 6.01153 3.38935 5.9969C3.52119 5.98228 3.65344 6.02062 3.757 6.1035L5.795 7.734L8.9085 3.5085C8.94599 3.45225 8.99448 3.40419 9.05106 3.36722C9.10765 3.33024 9.17114 3.30512 9.2377 3.29338C9.30426 3.28163 9.37252 3.28351 9.43834 3.29889C9.50415 3.31426 9.56617 3.34283 9.62064 3.38285C9.67511 3.42287 9.7209 3.47352 9.75524 3.53174C9.78958 3.58996 9.81176 3.65453 9.82044 3.72157C9.82912 3.7886 9.82412 3.85669 9.80574 3.92174C9.78736 3.98678 9.75598 4.04742 9.7135 4.1Z" fill="#457A5F"/>
</g>
<defs>
<clipPath id="clip0">
<rect width="12" height="12" fill="white" transform="translate(0.25)"/>
</clipPath>
</defs>
</svg>
