<svg width="16" height="16" viewBox="0 0 16 16" fill="none" xmlns="http://www.w3.org/2000/svg">
<circle cx="8" cy="8" r="8" fill="#00B4BD"/>
<g clip-path="url(#clip0)">
<path d="M8 1C6.61553 1 5.26216 1.41054 4.11101 2.17971C2.95987 2.94888 2.06266 4.04213 1.53285 5.32122C1.00303 6.6003 0.86441 8.00776 1.13451 9.36563C1.4046 10.7235 2.07129 11.9708 3.05026 12.9497C4.02922 13.9287 5.2765 14.5954 6.63437 14.8655C7.99224 15.1356 9.39971 14.997 10.6788 14.4672C11.9579 13.9373 13.0511 13.0401 13.8203 11.889C14.5895 10.7378 15 9.38447 15 8C14.998 6.1441 14.2599 4.36479 12.9475 3.05247C11.6352 1.74015 9.8559 1.00201 8 1V1ZM12.2741 11.9667C10.9545 11.278 9.48814 10.9184 7.99971 10.9184C6.51128 10.9184 5.04489 11.278 3.72534 11.9667C2.95272 11.1347 2.43968 10.0954 2.24912 8.97613C2.05857 7.85686 2.19879 6.70632 2.65258 5.66558C3.10638 4.62484 3.85402 3.73915 4.80383 3.11712C5.75365 2.49509 6.86434 2.16376 7.99971 2.16376C9.13508 2.16376 10.2458 2.49509 11.1956 3.11712C12.1454 3.73915 12.893 4.62484 13.3468 5.66558C13.8006 6.70632 13.9409 7.85686 13.7503 8.97613C13.5597 10.0954 13.0467 11.1347 12.2741 11.9667V11.9667Z" fill="white"/>
<path d="M4.2085 7.5625H3.3335C3.21746 7.5625 3.10618 7.60859 3.02414 7.69064C2.94209 7.77269 2.896 7.88397 2.896 8C2.896 8.11603 2.94209 8.22731 3.02414 8.30936C3.10618 8.39141 3.21746 8.4375 3.3335 8.4375H4.2085C4.32453 8.4375 4.43581 8.39141 4.51786 8.30936C4.5999 8.22731 4.646 8.11603 4.646 8C4.646 7.88397 4.5999 7.77269 4.51786 7.69064C4.43581 7.60859 4.32453 7.5625 4.2085 7.5625Z" fill="white"/>
<path d="M5.06569 4.44735C5.02563 4.40437 4.97733 4.36989 4.92367 4.34598C4.87 4.32207 4.81207 4.30921 4.75332 4.30817C4.69458 4.30714 4.63623 4.31794 4.58175 4.33995C4.52728 4.36195 4.47779 4.3947 4.43625 4.43625C4.3947 4.47779 4.36195 4.52728 4.33995 4.58175C4.31794 4.63623 4.30714 4.69458 4.30817 4.75332C4.30921 4.81207 4.32207 4.87 4.34598 4.92367C4.36989 4.97733 4.40437 5.02563 4.44735 5.06569L5.06569 5.68402C5.10574 5.727 5.15404 5.76148 5.2077 5.78539C5.26137 5.8093 5.3193 5.82216 5.37805 5.8232C5.43679 5.82423 5.49514 5.81343 5.54962 5.79142C5.60409 5.76942 5.65358 5.73667 5.69512 5.69512C5.73667 5.65358 5.76942 5.60409 5.79142 5.54962C5.81343 5.49514 5.82423 5.43679 5.8232 5.37805C5.82216 5.3193 5.8093 5.26137 5.78539 5.2077C5.76148 5.15404 5.727 5.10574 5.68402 5.06569L5.06569 4.44735Z" fill="white"/>
<path d="M8 4.646C8.11603 4.646 8.22731 4.5999 8.30936 4.51786C8.39141 4.43581 8.4375 4.32453 8.4375 4.2085V3.3335C8.4375 3.21746 8.39141 3.10618 8.30936 3.02414C8.22731 2.94209 8.11603 2.896 8 2.896C7.88397 2.896 7.77269 2.94209 7.69064 3.02414C7.60859 3.10618 7.5625 3.21746 7.5625 3.3335V4.2085C7.5625 4.32453 7.60859 4.43581 7.69064 4.51786C7.77269 4.5999 7.88397 4.646 8 4.646V4.646Z" fill="white"/>
<path d="M12.6665 7.5625H11.7915C11.6755 7.5625 11.5642 7.60859 11.4821 7.69064C11.4001 7.77269 11.354 7.88397 11.354 8C11.354 8.11603 11.4001 8.22731 11.4821 8.30936C11.5642 8.39141 11.6755 8.4375 11.7915 8.4375H12.6665C12.7825 8.4375 12.8938 8.39141 12.9759 8.30936C13.0579 8.22731 13.104 8.11603 13.104 8C13.104 7.88397 13.0579 7.77269 12.9759 7.69064C12.8938 7.60859 12.7825 7.5625 12.6665 7.5625Z" fill="white"/>
<path d="M11.7064 4.8769C11.6604 4.8309 11.6003 4.8016 11.5357 4.79368C11.4711 4.78575 11.4058 4.79965 11.35 4.83315C10.9481 5.07465 7.41073 7.20499 6.96857 7.64716C6.70821 7.90837 6.56201 8.26214 6.56201 8.63095C6.56201 8.99975 6.70821 9.35352 6.96857 9.61474C7.23226 9.87037 7.5851 10.0133 7.95236 10.0133C8.31962 10.0133 8.67245 9.87037 8.93615 9.61474C9.37831 9.17257 11.5086 5.63524 11.7501 5.2339C11.7838 5.17807 11.7978 5.11257 11.7899 5.04786C11.7819 4.98315 11.7525 4.92296 11.7064 4.8769Z" fill="white"/>
</g>
<defs>
<clipPath id="clip0">
<rect width="14" height="14" fill="white" transform="translate(1 1)"/>
</clipPath>
</defs>
</svg>
