<svg width="16" height="16" viewBox="0 0 16 16" fill="none" xmlns="http://www.w3.org/2000/svg">
<circle cx="8" cy="8" r="8" fill="#3C6FB7"/>
<path d="M13.7649 8.26488C13.7997 8.23009 13.8273 8.18879 13.8462 8.14332C13.865 8.09784 13.8748 8.0491 13.8748 7.99988C13.8748 7.95065 13.865 7.90191 13.8462 7.85644C13.8273 7.81097 13.7997 7.76966 13.7649 7.73488L8.26488 2.23488C8.23009 2.20005 8.18879 2.17241 8.14332 2.15356C8.09784 2.1347 8.0491 2.125 7.99988 2.125C7.95065 2.125 7.90191 2.1347 7.85644 2.15356C7.81097 2.17241 7.76966 2.20005 7.73488 2.23488L2.23488 7.73488C2.20005 7.76966 2.17241 7.81097 2.15356 7.85644C2.1347 7.90191 2.125 7.95065 2.125 7.99988C2.125 8.0491 2.1347 8.09784 2.15356 8.14332C2.17241 8.18879 2.20005 8.23009 2.23488 8.26488L7.73488 13.7649C7.76963 13.7998 7.81092 13.8275 7.8564 13.8463C7.90187 13.8652 7.95063 13.875 7.99988 13.875C8.04912 13.875 8.09788 13.8652 8.14335 13.8463C8.18883 13.8275 8.23013 13.7998 8.26488 13.7649L13.7649 8.26488ZM11.0469 7.37488C11.1179 7.37492 11.1874 7.3951 11.2473 7.43307C11.3073 7.47105 11.3552 7.52526 11.3856 7.5894C11.416 7.65355 11.4275 7.725 11.4189 7.79545C11.4103 7.8659 11.3818 7.93245 11.3369 7.98738L10.2904 9.26838C10.2558 9.312 10.2118 9.34724 10.1616 9.37146C10.1115 9.39569 10.0566 9.40827 10.0009 9.40827C9.9452 9.40827 9.89024 9.39569 9.84011 9.37146C9.78998 9.34724 9.74597 9.312 9.71138 9.26838L8.64988 7.98938C8.6044 7.93458 8.57546 7.86798 8.56645 7.79734C8.55744 7.72671 8.56872 7.65497 8.59898 7.59051C8.62924 7.52605 8.67723 7.47154 8.73733 7.43336C8.79744 7.39517 8.86717 7.37489 8.93838 7.37488H9.49988C9.53303 7.37488 9.56482 7.36171 9.58827 7.33827C9.61171 7.31482 9.62488 7.28303 9.62488 7.24988C9.62488 6.8852 9.48001 6.53547 9.22215 6.27761C8.96429 6.01974 8.61455 5.87488 8.24988 5.87488C7.8852 5.87488 7.53547 6.01974 7.27761 6.27761C7.01974 6.53547 6.87488 6.8852 6.87488 7.24988V10.2499C6.87488 10.3493 6.83537 10.4447 6.76504 10.515C6.69472 10.5854 6.59933 10.6249 6.49988 10.6249C6.40042 10.6249 6.30504 10.5854 6.23471 10.515C6.16439 10.4447 6.12488 10.3493 6.12488 10.2499V7.24988C6.12488 6.68629 6.34876 6.14579 6.74727 5.74728C7.14579 5.34876 7.68629 5.12488 8.24988 5.12488C8.81346 5.12488 9.35396 5.34876 9.75248 5.74728C10.151 6.14579 10.3749 6.68629 10.3749 7.24988C10.3749 7.28303 10.388 7.31482 10.4115 7.33827C10.4349 7.36171 10.4667 7.37488 10.4999 7.37488H11.0469Z" fill="white"/>
</svg>
